# xmcd CD database file
#
# Track frame offsets:
#	150
#	17777
#	40410
#	58572
#	79597
#	91412
#	108127
#	118329
#	154455
#
# Disc length: 2829 seconds
#
# Revision: 2
# Processed by: cddbd v1.5.2PL0 Copyright (c) Steve Scherf et al.
# Submitted via: CDex 1.70beta3
#
DISCID=6f0b0b09
DTITLE=JET - Rare Tracks
DYEAR=2003
DGENRE=Loud Rock
TTITLE0=Are You Gonna Be My Girl (Live)
TTITLE1=Cold hard Bitch (Live)
TTITLE2=Sgt. Major
TTITLE3=You Don't Look The Same (Demo)
TTITLE4=Bruises (Demo)
TTITLE5=You Were Right (Demo)
TTITLE6=Back Door Santa
TTITLE7=That's Alright Mama (Live)
TTITLE8=PROMO VIDEO
EXTD=YEAR: 2003
EXTT0=
EXTT1=
EXTT2=
EXTT3=
EXTT4=
EXTT5=
EXTT6=
EXTT7=
EXTT8=
PLAYORDER=
